<?xml version="1.0" encoding="UTF-8"?>
<svg xmlns="http://www.w3.org/2000/svg" xmlns:xlink="http://www.w3.org/1999/xlink" width="64px" height="64px" viewBox="0 0 500 500" version="1.1">
<g id="surface286470">
<path style=" stroke:none;fill-rule:nonzero;fill:rgb(44.705882%,79.215686%,68.627451%);fill-opacity:1;" d="M 85.9375 70.3125 L 414.0625 70.3125 C 431.320312 70.3125 445.3125 84.304688 445.3125 101.5625 L 445.3125 398.4375 C 445.3125 415.695312 431.320312 429.6875 414.0625 429.6875 L 85.9375 429.6875 C 68.679688 429.6875 54.6875 415.695312 54.6875 398.4375 L 54.6875 101.5625 C 54.6875 84.304688 68.679688 70.3125 85.9375 70.3125 Z M 85.9375 70.3125 "/>
<path style=" stroke:none;fill-rule:nonzero;fill:rgb(54.509804%,55.686275%,59.607843%);fill-opacity:1;" d="M 109.375 117.1875 L 390.625 117.1875 C 394.941406 117.1875 398.4375 120.683594 398.4375 125 L 398.4375 375 C 398.4375 379.316406 394.941406 382.8125 390.625 382.8125 L 109.375 382.8125 C 105.058594 382.8125 101.5625 379.316406 101.5625 375 L 101.5625 125 C 101.5625 120.683594 105.058594 117.1875 109.375 117.1875 Z M 109.375 117.1875 "/>
<path style=" stroke:none;fill-rule:nonzero;fill:rgb(59.607843%,60.784314%,63.921569%);fill-opacity:1;" d="M 398.4375 125 L 398.4375 145.46875 L 161.09375 382.8125 L 109.375 384.296875 L 376.484375 117.1875 L 390.625 117.1875 C 394.941406 117.1875 398.4375 120.683594 398.4375 125 Z M 398.4375 179.0625 L 398.4375 304.453125 L 319.765625 382.8125 L 194.21875 382.8125 Z M 343.046875 117.1875 L 102.5 357.8125 L 102.5 315.9375 L 301.171875 117.1875 Z M 343.046875 117.1875 "/>
<path style=" stroke:none;fill-rule:nonzero;fill:rgb(55.294118%,42.352941%,62.352941%);fill-opacity:1;" d="M 390.625 109.375 L 109.375 109.375 C 100.746094 109.375 93.75 116.371094 93.75 125 L 93.75 375 C 93.75 383.628906 100.746094 390.625 109.375 390.625 L 390.625 390.625 C 399.253906 390.625 406.25 383.628906 406.25 375 L 406.25 125 C 406.25 116.371094 399.253906 109.375 390.625 109.375 Z M 390.625 375 L 109.375 375 L 109.375 125 L 390.625 125 Z M 390.625 375 "/>
<path style=" stroke:none;fill-rule:nonzero;fill:rgb(55.294118%,42.352941%,62.352941%);fill-opacity:1;" d="M 476.5625 187.5 C 480.878906 187.5 484.375 184.003906 484.375 179.6875 C 484.375 175.371094 480.878906 171.875 476.5625 171.875 L 453.125 171.875 L 453.125 140.625 L 476.5625 140.625 C 480.878906 140.625 484.375 137.128906 484.375 132.8125 C 484.375 128.496094 480.878906 125 476.5625 125 L 453.125 125 L 453.125 101.5625 C 453.125 79.988281 435.636719 62.5 414.0625 62.5 L 375 62.5 L 375 39.0625 C 375 34.746094 371.503906 31.25 367.1875 31.25 C 362.871094 31.25 359.375 34.746094 359.375 39.0625 L 359.375 62.5 L 328.125 62.5 L 328.125 39.0625 C 328.125 34.746094 324.628906 31.25 320.3125 31.25 C 315.996094 31.25 312.5 34.746094 312.5 39.0625 L 312.5 62.5 L 281.25 62.5 L 281.25 39.0625 C 281.25 34.746094 277.753906 31.25 273.4375 31.25 C 269.121094 31.25 265.625 34.746094 265.625 39.0625 L 265.625 62.5 L 234.375 62.5 L 234.375 39.0625 C 234.375 34.746094 230.878906 31.25 226.5625 31.25 C 222.246094 31.25 218.75 34.746094 218.75 39.0625 L 218.75 62.5 L 187.5 62.5 L 187.5 39.0625 C 187.5 34.746094 184.003906 31.25 179.6875 31.25 C 175.371094 31.25 171.875 34.746094 171.875 39.0625 L 171.875 62.5 L 140.625 62.5 L 140.625 39.0625 C 140.625 34.746094 137.128906 31.25 132.8125 31.25 C 128.496094 31.25 125 34.746094 125 39.0625 L 125 62.5 L 85.9375 62.5 C 64.363281 62.5 46.875 79.988281 46.875 101.5625 L 46.875 125 L 23.4375 125 C 19.121094 125 15.625 128.496094 15.625 132.8125 C 15.625 137.128906 19.121094 140.625 23.4375 140.625 L 46.875 140.625 L 46.875 171.875 L 23.4375 171.875 C 19.121094 171.875 15.625 175.371094 15.625 179.6875 C 15.625 184.003906 19.121094 187.5 23.4375 187.5 L 46.875 187.5 L 46.875 218.75 L 23.4375 218.75 C 19.121094 218.75 15.625 222.246094 15.625 226.5625 C 15.625 230.878906 19.121094 234.375 23.4375 234.375 L 46.875 234.375 L 46.875 265.625 L 23.4375 265.625 C 19.121094 265.625 15.625 269.121094 15.625 273.4375 C 15.625 277.753906 19.121094 281.25 23.4375 281.25 L 46.875 281.25 L 46.875 312.5 L 23.4375 312.5 C 19.121094 312.5 15.625 315.996094 15.625 320.3125 C 15.625 324.628906 19.121094 328.125 23.4375 328.125 L 46.875 328.125 L 46.875 359.375 L 23.4375 359.375 C 19.121094 359.375 15.625 362.871094 15.625 367.1875 C 15.625 371.503906 19.121094 375 23.4375 375 L 46.875 375 L 46.875 398.4375 C 46.875 420.011719 64.363281 437.5 85.9375 437.5 L 125 437.5 L 125 460.9375 C 125 465.253906 128.496094 468.75 132.8125 468.75 C 137.128906 468.75 140.625 465.253906 140.625 460.9375 L 140.625 437.5 L 171.875 437.5 L 171.875 460.9375 C 171.875 465.253906 175.371094 468.75 179.6875 468.75 C 184.003906 468.75 187.5 465.253906 187.5 460.9375 L 187.5 437.5 L 218.75 437.5 L 218.75 460.9375 C 218.75 465.253906 222.246094 468.75 226.5625 468.75 C 230.878906 468.75 234.375 465.253906 234.375 460.9375 L 234.375 437.5 L 265.625 437.5 L 265.625 460.9375 C 265.625 465.253906 269.121094 468.75 273.4375 468.75 C 277.753906 468.75 281.25 465.253906 281.25 460.9375 L 281.25 437.5 L 312.5 437.5 L 312.5 460.9375 C 312.5 465.253906 315.996094 468.75 320.3125 468.75 C 324.628906 468.75 328.125 465.253906 328.125 460.9375 L 328.125 437.5 L 359.375 437.5 L 359.375 460.9375 C 359.375 465.253906 362.871094 468.75 367.1875 468.75 C 371.503906 468.75 375 465.253906 375 460.9375 L 375 437.5 L 414.0625 437.5 C 435.636719 437.5 453.125 420.011719 453.125 398.4375 L 453.125 375 L 476.5625 375 C 480.878906 375 484.375 371.503906 484.375 367.1875 C 484.375 362.871094 480.878906 359.375 476.5625 359.375 L 453.125 359.375 L 453.125 328.125 L 476.5625 328.125 C 480.878906 328.125 484.375 324.628906 484.375 320.3125 C 484.375 315.996094 480.878906 312.5 476.5625 312.5 L 453.125 312.5 L 453.125 281.25 L 476.5625 281.25 C 480.878906 281.25 484.375 277.753906 484.375 273.4375 C 484.375 269.121094 480.878906 265.625 476.5625 265.625 L 453.125 265.625 L 453.125 234.375 L 476.5625 234.375 C 480.878906 234.375 484.375 230.878906 484.375 226.5625 C 484.375 222.246094 480.878906 218.75 476.5625 218.75 L 453.125 218.75 L 453.125 187.5 Z M 437.5 398.4375 C 437.5 411.382812 427.007812 421.875 414.0625 421.875 L 85.9375 421.875 C 72.992188 421.875 62.5 411.382812 62.5 398.4375 L 62.5 101.5625 C 62.5 88.617188 72.992188 78.125 85.9375 78.125 L 414.0625 78.125 C 427.007812 78.125 437.5 88.617188 437.5 101.5625 Z M 437.5 398.4375 "/>
<path style=" stroke:none;fill-rule:nonzero;fill:rgb(98.039216%,93.72549%,87.058824%);fill-opacity:1;" d="M 210.9375 328.125 C 206.621094 328.125 203.125 331.621094 203.125 335.9375 L 203.125 351.5625 C 203.125 355.878906 206.621094 359.375 210.9375 359.375 C 215.253906 359.375 218.75 355.878906 218.75 351.5625 L 218.75 335.9375 C 218.75 331.621094 215.253906 328.125 210.9375 328.125 Z M 171.875 328.125 C 167.558594 328.125 164.0625 331.621094 164.0625 335.9375 L 164.0625 351.5625 C 164.0625 355.878906 167.558594 359.375 171.875 359.375 C 176.191406 359.375 179.6875 355.878906 179.6875 351.5625 L 179.6875 335.9375 C 179.6875 331.621094 176.191406 328.125 171.875 328.125 Z M 250 328.125 C 245.683594 328.125 242.1875 331.621094 242.1875 335.9375 L 242.1875 351.5625 C 242.1875 355.878906 245.683594 359.375 250 359.375 C 254.316406 359.375 257.8125 355.878906 257.8125 351.5625 L 257.8125 335.9375 C 257.8125 331.621094 254.316406 328.125 250 328.125 Z M 132.8125 359.375 C 137.128906 359.375 140.625 355.878906 140.625 351.5625 L 140.625 335.9375 C 140.625 331.621094 137.128906 328.125 132.8125 328.125 C 128.496094 328.125 125 331.621094 125 335.9375 L 125 351.5625 C 125 355.878906 128.496094 359.375 132.8125 359.375 Z M 367.1875 359.375 C 371.503906 359.375 375 355.878906 375 351.5625 L 375 335.9375 C 375 331.621094 371.503906 328.125 367.1875 328.125 C 362.871094 328.125 359.375 331.621094 359.375 335.9375 L 359.375 351.5625 C 359.375 355.878906 362.871094 359.375 367.1875 359.375 Z M 320.3125 335.9375 L 320.3125 351.5625 C 320.3125 355.878906 323.808594 359.375 328.125 359.375 C 332.441406 359.375 335.9375 355.878906 335.9375 351.5625 L 335.9375 335.9375 C 335.9375 331.621094 332.441406 328.125 328.125 328.125 C 323.808594 328.125 320.3125 331.621094 320.3125 335.9375 Z M 289.0625 328.125 C 284.746094 328.125 281.25 331.621094 281.25 335.9375 L 281.25 351.5625 C 281.25 355.878906 284.746094 359.375 289.0625 359.375 C 293.378906 359.375 296.875 355.878906 296.875 351.5625 L 296.875 335.9375 C 296.875 331.621094 293.378906 328.125 289.0625 328.125 Z M 289.0625 328.125 "/>
<path style=" stroke:none;fill-rule:nonzero;fill:rgb(92.941176%,47.058824%,60%);fill-opacity:1;" d="M 164.0625 164.0625 C 155.433594 164.0625 148.4375 171.058594 148.4375 179.6875 C 148.4375 188.316406 155.433594 195.3125 164.0625 195.3125 C 172.691406 195.3125 179.6875 188.316406 179.6875 179.6875 C 179.6875 171.058594 172.691406 164.0625 164.0625 164.0625 Z M 164.0625 164.0625 "/>
<path style=" stroke:none;fill-rule:nonzero;fill:rgb(55.294118%,42.352941%,62.352941%);fill-opacity:1;" d="M 164.0625 203.125 C 175.246094 203.136719 184.875 195.242188 187.066406 184.277344 C 189.257812 173.3125 183.394531 162.328125 173.070312 158.039062 C 162.742188 153.753906 150.824219 157.359375 144.605469 166.652344 C 138.386719 175.945312 139.597656 188.339844 147.5 196.25 C 151.890625 200.648438 157.847656 203.121094 164.0625 203.125 Z M 158.515625 174.140625 C 160.746094 171.898438 164.109375 171.21875 167.035156 172.425781 C 169.960938 173.632812 171.867188 176.484375 171.867188 179.648438 C 171.867188 182.8125 169.960938 185.664062 167.035156 186.871094 C 164.109375 188.078125 160.746094 187.398438 158.515625 185.15625 C 155.488281 182.109375 155.488281 177.1875 158.515625 174.140625 Z M 158.515625 174.140625 "/>
<path style=" stroke:none;fill-rule:nonzero;fill:rgb(98.039216%,93.72549%,87.058824%);fill-opacity:1;" d="M 195.3125 281.25 L 234.375 281.25 C 238.691406 281.25 242.1875 277.753906 242.1875 273.4375 C 242.1875 269.121094 238.691406 265.625 234.375 265.625 L 195.3125 265.625 C 190.996094 265.625 187.5 269.121094 187.5 273.4375 C 187.5 277.753906 190.996094 281.25 195.3125 281.25 Z M 289.0625 273.4375 C 289.0625 269.121094 285.566406 265.625 281.25 265.625 L 265.625 265.625 C 261.308594 265.625 257.8125 269.121094 257.8125 273.4375 C 257.8125 277.753906 261.308594 281.25 265.625 281.25 L 281.25 281.25 C 285.566406 281.25 289.0625 277.753906 289.0625 273.4375 Z M 195.3125 250 L 320.3125 250 C 324.628906 250 328.125 246.503906 328.125 242.1875 C 328.125 237.871094 324.628906 234.375 320.3125 234.375 L 195.3125 234.375 C 190.996094 234.375 187.5 237.871094 187.5 242.1875 C 187.5 246.503906 190.996094 250 195.3125 250 Z M 195.3125 250 "/>
<path style=" stroke:none;fill-rule:nonzero;fill:rgb(86.666667%,86.666667%,86.666667%);fill-opacity:1;" d="M 300.78125 148.4375 L 310.46875 166.09375 L 328.125 175.78125 L 310.46875 185.46875 L 300.78125 203.125 L 291.09375 185.46875 L 273.4375 175.78125 L 291.09375 166.09375 Z M 151.71875 234.375 L 158.359375 246.5625 L 170.625 253.28125 L 158.359375 259.921875 L 151.71875 272.1875 L 145 259.921875 L 132.8125 253.28125 L 145 246.5625 Z M 309.765625 296.875 L 314.296875 305.15625 L 322.65625 309.765625 L 314.296875 314.296875 L 309.765625 322.65625 L 305.15625 314.296875 L 296.875 309.765625 L 305.15625 305.15625 Z M 309.765625 296.875 "/>
</g>
</svg>
