<?xml version="1.0" encoding="UTF-8"?>
<svg xmlns="http://www.w3.org/2000/svg" xmlns:xlink="http://www.w3.org/1999/xlink" width="64px" height="64px" viewBox="0 0 500 500" version="1.1">
<g id="surface814816">
<path style=" stroke:none;fill-rule:nonzero;fill:rgb(44.705882%,79.215686%,68.627451%);fill-opacity:1;" d="M 445.3125 70.3125 L 445.3125 429.6875 C 445.3125 438.28125 438.28125 445.3125 429.6875 445.3125 L 70.3125 445.3125 C 61.71875 445.3125 54.6875 438.28125 54.6875 429.6875 L 54.6875 70.3125 C 54.6875 61.71875 61.71875 54.6875 70.3125 54.6875 L 429.6875 54.6875 C 438.28125 54.6875 445.3125 61.71875 445.3125 70.3125 Z M 445.3125 70.3125 "/>
<path style=" stroke:none;fill-rule:nonzero;fill:rgb(97.647059%,86.666667%,56.078431%);fill-opacity:1;" d="M 338.046875 101.875 C 315.9375 104.0625 297.03125 120.234375 291.09375 141.640625 C 288.671875 150.3125 288.515625 158.75 290.078125 166.5625 C 291.09375 171.796875 289.6875 177.1875 285.859375 180.9375 L 180.9375 285.859375 C 177.1875 289.6875 171.796875 291.09375 166.5625 290.078125 C 158.75 288.515625 150.3125 288.671875 141.640625 291.09375 C 120.234375 297.03125 104.0625 315.9375 101.875 338.046875 C 98.359375 372.734375 127.265625 401.640625 161.953125 398.125 C 184.0625 395.859375 202.96875 379.765625 208.90625 358.359375 C 211.328125 349.6875 211.484375 341.25 209.921875 333.4375 C 208.90625 328.203125 210.3125 322.8125 214.140625 319.0625 L 319.0625 214.140625 C 322.8125 210.3125 328.203125 208.90625 333.4375 209.921875 C 342.578125 211.71875 352.5 211.25 362.890625 207.5 C 380.46875 201.09375 393.828125 185.546875 397.34375 167.1875 C 404.53125 130.234375 374.453125 98.125 338.046875 101.875 Z M 156.25 359.375 C 147.65625 359.375 140.625 352.34375 140.625 343.75 C 140.625 335.15625 147.65625 328.125 156.25 328.125 C 164.84375 328.125 171.875 335.15625 171.875 343.75 C 171.875 352.34375 164.84375 359.375 156.25 359.375 Z M 343.75 171.875 C 335.15625 171.875 328.125 164.84375 328.125 156.25 C 328.125 147.65625 335.15625 140.625 343.75 140.625 C 352.34375 140.625 359.375 147.65625 359.375 156.25 C 359.375 164.84375 352.34375 171.875 343.75 171.875 Z M 401.640625 368.4375 C 397.8125 364.6875 396.40625 359.296875 397.421875 354.0625 C 398.984375 346.25 398.828125 337.8125 396.40625 329.140625 C 390.46875 307.734375 371.5625 291.5625 349.453125 289.375 C 314.765625 285.859375 285.859375 314.765625 289.375 349.453125 C 291.640625 371.5625 307.734375 390.46875 329.140625 396.40625 C 337.8125 398.828125 346.25 398.984375 354.0625 397.421875 C 359.296875 396.40625 364.6875 397.8125 368.4375 401.640625 L 412.109375 445.3125 L 429.6875 445.3125 C 438.28125 445.3125 445.3125 438.28125 445.3125 429.6875 L 445.3125 412.109375 Z M 343.75 359.375 C 335.15625 359.375 328.125 352.34375 328.125 343.75 C 328.125 335.15625 335.15625 328.125 343.75 328.125 C 352.34375 328.125 359.375 335.15625 359.375 343.75 C 359.375 352.34375 352.34375 359.375 343.75 359.375 Z M 210.625 150.546875 C 208.4375 128.4375 192.265625 109.53125 170.859375 103.59375 C 162.1875 101.171875 153.75 101.015625 145.9375 102.578125 C 140.703125 103.59375 135.3125 102.1875 131.5625 98.359375 L 87.890625 54.6875 L 70.3125 54.6875 C 61.71875 54.6875 54.6875 61.71875 54.6875 70.3125 L 54.6875 87.890625 L 98.359375 131.5625 C 102.1875 135.3125 103.59375 140.703125 102.578125 145.9375 C 100.78125 155.078125 101.25 165 105 175.390625 C 111.40625 192.96875 126.953125 206.328125 145.3125 209.84375 C 182.265625 217.03125 214.375 186.953125 210.625 150.546875 Z M 156.25 171.875 C 147.65625 171.875 140.625 164.84375 140.625 156.25 C 140.625 147.65625 147.65625 140.625 156.25 140.625 C 164.84375 140.625 171.875 147.65625 171.875 156.25 C 171.875 164.84375 164.84375 171.875 156.25 171.875 Z M 156.25 171.875 "/>
<path style=" stroke:none;fill-rule:nonzero;fill:rgb(55.294118%,42.352941%,62.352941%);fill-opacity:1;" d="M 429.6875 46.875 L 70.3125 46.875 C 57.390625 46.875 46.875 57.390625 46.875 70.3125 L 46.875 429.6875 C 46.875 442.609375 57.390625 453.125 70.3125 453.125 L 429.6875 453.125 C 442.609375 453.125 453.125 442.609375 453.125 429.6875 L 453.125 70.3125 C 453.125 57.390625 442.609375 46.875 429.6875 46.875 Z M 437.5 429.6875 C 437.5 434 434 437.5 429.6875 437.5 L 415.40625 437.5 L 373.984375 396.085938 C 368.476562 390.578125 360.445312 388.210938 352.546875 389.757812 C 344.164062 391.40625 335.6875 390.679688 327.320312 387.640625 C 312.148438 382.109375 300.828125 368.914062 297.789062 353.1875 C 294.882812 338.171875 299.015625 323.210938 309.132812 312.140625 C 319.25 301.078125 333.640625 295.585938 348.679688 297.125 C 367.609375 299.039062 383.765625 312.734375 388.882812 331.203125 C 390.851562 338.296875 391.148438 345.476562 389.757812 352.546875 C 388.210938 360.460938 390.570312 368.46875 396.085938 373.976562 L 416.351562 394.25 C 419.40625 397.304688 424.34375 397.304688 427.398438 394.25 C 430.453125 391.195312 430.453125 386.257812 427.398438 383.203125 L 407.132812 362.929688 C 405.3125 361.109375 404.546875 358.34375 405.09375 355.546875 C 406.945312 346.078125 406.5625 336.484375 403.945312 327.023438 C 397.117188 302.40625 375.539062 284.140625 350.25 281.578125 C 330.234375 279.546875 311.078125 286.859375 297.601562 301.601562 C 284.125 316.34375 278.59375 336.242188 282.460938 356.148438 C 286.53125 377.226562 301.679688 394.914062 321.976562 402.3125 C 333.070312 406.359375 344.367188 407.28125 355.554688 405.085938 C 358.367188 404.546875 361.125 405.296875 362.945312 407.125 L 393.304688 437.5 L 70.3125 437.5 C 66 437.5 62.5 434 62.5 429.6875 L 62.5 265.625 C 66.820312 265.625 70.3125 262.132812 70.3125 257.8125 L 70.3125 242.1875 C 70.3125 237.867188 66.820312 234.375 62.5 234.375 L 62.5 70.3125 C 62.5 66 66 62.5 70.3125 62.5 L 84.59375 62.5 L 126.015625 103.914062 C 131.523438 109.414062 139.5625 111.78125 147.453125 110.242188 C 154.523438 108.84375 161.710938 109.140625 168.789062 111.117188 C 187.257812 116.234375 200.953125 132.398438 202.867188 151.328125 C 204.3125 165.515625 199.398438 179.390625 189.390625 189.398438 C 179.382812 199.398438 165.539062 204.359375 151.320312 202.875 C 132.382812 200.960938 116.226562 187.265625 111.109375 168.796875 C 109.140625 161.703125 108.84375 154.523438 110.234375 147.453125 C 111.78125 139.539062 109.421875 131.53125 103.90625 126.023438 L 83.640625 105.75 C 80.585938 102.695312 75.648438 102.695312 72.59375 105.75 C 69.539062 108.804688 69.539062 113.742188 72.59375 116.796875 L 92.859375 137.070312 C 94.679688 138.890625 95.445312 141.65625 94.898438 144.453125 C 93.046875 153.921875 93.429688 163.515625 96.046875 172.976562 C 102.875 197.59375 124.460938 215.859375 149.75 218.421875 C 151.914062 218.632812 154.070312 218.75 156.203125 218.75 C 172.789062 218.75 188.625 212.257812 200.445312 200.445312 C 213.78125 187.101562 220.335938 168.632812 218.421875 149.757812 C 215.859375 124.46875 197.59375 102.882812 172.976562 96.054688 C 163.507812 93.4375 153.921875 93.046875 144.460938 94.90625 C 141.65625 95.445312 138.890625 94.695312 137.070312 92.867188 L 106.695312 62.5 L 429.6875 62.5 C 434 62.5 437.5 66 437.5 70.3125 L 437.5 234.375 C 433.179688 234.375 429.6875 237.867188 429.6875 242.1875 L 429.6875 257.8125 C 429.6875 262.132812 433.179688 265.625 437.5 265.625 Z M 437.5 429.6875 "/>
<path style=" stroke:none;fill-rule:nonzero;fill:rgb(55.294118%,42.352941%,62.352941%);fill-opacity:1;" d="M 343.75 132.8125 C 330.828125 132.8125 320.3125 143.328125 320.3125 156.25 C 320.3125 169.171875 330.828125 179.6875 343.75 179.6875 C 356.671875 179.6875 367.1875 169.171875 367.1875 156.25 C 367.1875 143.328125 356.671875 132.8125 343.75 132.8125 Z M 343.75 164.0625 C 339.4375 164.0625 335.9375 160.5625 335.9375 156.25 C 335.9375 151.9375 339.4375 148.4375 343.75 148.4375 C 348.0625 148.4375 351.5625 151.9375 351.5625 156.25 C 351.5625 160.5625 348.0625 164.0625 343.75 164.0625 Z M 343.75 320.3125 C 330.828125 320.3125 320.3125 330.828125 320.3125 343.75 C 320.3125 356.671875 330.828125 367.1875 343.75 367.1875 C 356.671875 367.1875 367.1875 356.671875 367.1875 343.75 C 367.1875 330.828125 356.671875 320.3125 343.75 320.3125 Z M 343.75 351.5625 C 339.4375 351.5625 335.9375 348.0625 335.9375 343.75 C 335.9375 339.4375 339.4375 335.9375 343.75 335.9375 C 348.0625 335.9375 351.5625 339.4375 351.5625 343.75 C 351.5625 348.0625 348.0625 351.5625 343.75 351.5625 Z M 156.25 179.6875 C 169.171875 179.6875 179.6875 169.171875 179.6875 156.25 C 179.6875 143.328125 169.171875 132.8125 156.25 132.8125 C 143.328125 132.8125 132.8125 143.328125 132.8125 156.25 C 132.8125 169.171875 143.328125 179.6875 156.25 179.6875 Z M 156.25 148.4375 C 160.5625 148.4375 164.0625 151.9375 164.0625 156.25 C 164.0625 160.5625 160.5625 164.0625 156.25 164.0625 C 151.9375 164.0625 148.4375 160.5625 148.4375 156.25 C 148.4375 151.9375 151.9375 148.4375 156.25 148.4375 Z M 156.25 320.3125 C 143.328125 320.3125 132.8125 330.828125 132.8125 343.75 C 132.8125 356.671875 143.328125 367.1875 156.25 367.1875 C 169.171875 367.1875 179.6875 356.671875 179.6875 343.75 C 179.6875 330.828125 169.171875 320.3125 156.25 320.3125 Z M 156.25 351.5625 C 151.9375 351.5625 148.4375 348.0625 148.4375 343.75 C 148.4375 339.4375 151.9375 335.9375 156.25 335.9375 C 160.5625 335.9375 164.0625 339.4375 164.0625 343.75 C 164.0625 348.0625 160.5625 351.5625 156.25 351.5625 Z M 156.25 351.5625 "/>
<path style=" stroke:none;fill-rule:nonzero;fill:rgb(55.294118%,42.352941%,62.352941%);fill-opacity:1;" d="M 389.898438 114.101562 C 376.414062 99.351562 357.226562 92.070312 337.25 94.078125 C 311.960938 96.640625 290.382812 114.90625 283.554688 139.523438 C 280.929688 148.984375 280.546875 158.578125 282.40625 168.039062 C 282.953125 170.84375 282.195312 173.609375 280.367188 175.429688 L 175.4375 280.367188 C 173.617188 282.1875 170.835938 282.9375 168.054688 282.40625 C 158.585938 280.546875 149 280.9375 139.53125 283.554688 C 114.914062 290.382812 96.648438 311.96875 94.085938 337.257812 C 92.179688 356.140625 98.734375 374.625 112.085938 387.960938 C 123.882812 399.765625 139.726562 406.25 156.296875 406.25 C 158.445312 406.25 160.617188 406.140625 162.78125 405.921875 C 188.054688 403.34375 209.625 385.070312 216.453125 360.453125 C 219.070312 351 219.453125 341.40625 217.59375 331.960938 C 217.046875 329.15625 217.804688 326.390625 219.632812 324.570312 L 324.5625 219.640625 C 326.382812 217.820312 329.164062 217.0625 331.945312 217.601562 C 343.148438 219.789062 354.4375 218.859375 365.53125 214.828125 C 385.828125 207.429688 400.96875 189.742188 405.046875 168.671875 C 408.90625 148.742188 403.382812 128.851562 389.898438 114.101562 Z M 389.710938 165.695312 C 386.664062 181.414062 375.351562 194.609375 360.179688 200.140625 C 351.804688 203.195312 343.3125 203.890625 334.953125 202.257812 C 327.039062 200.710938 319.03125 203.078125 313.523438 208.585938 L 208.585938 313.515625 C 203.078125 319.023438 200.710938 327.03125 202.257812 334.953125 C 203.648438 342.007812 203.351562 349.1875 201.390625 356.273438 C 196.273438 374.734375 180.117188 388.4375 161.1875 390.367188 C 146.976562 391.820312 133.117188 386.914062 123.109375 376.898438 C 113.101562 366.898438 108.1875 353.015625 109.617188 338.820312 C 111.53125 319.882812 125.226562 303.726562 143.695312 298.609375 C 147.875 297.453125 152.070312 296.875 156.25 296.875 C 159.195312 296.875 162.132812 297.164062 165.054688 297.734375 C 172.976562 299.296875 180.984375 296.914062 186.484375 291.40625 L 291.414062 186.484375 C 296.921875 180.976562 299.289062 172.96875 297.742188 165.046875 C 296.351562 157.984375 296.648438 150.804688 298.617188 143.710938 C 303.734375 125.242188 319.898438 111.546875 338.820312 109.632812 C 353.789062 108.109375 368.25 113.578125 378.367188 124.648438 C 388.484375 135.71875 392.617188 150.671875 389.710938 165.695312 Z M 398.4375 234.375 C 394.117188 234.375 390.625 237.867188 390.625 242.1875 L 390.625 257.8125 C 390.625 262.132812 394.117188 265.625 398.4375 265.625 C 402.757812 265.625 406.25 262.132812 406.25 257.8125 L 406.25 242.1875 C 406.25 237.867188 402.757812 234.375 398.4375 234.375 Z M 398.4375 234.375 "/>
<path style=" stroke:none;fill-rule:nonzero;fill:rgb(55.294118%,42.352941%,62.352941%);fill-opacity:1;" d="M 359.375 234.375 C 355.054688 234.375 351.5625 237.867188 351.5625 242.1875 L 351.5625 257.8125 C 351.5625 262.132812 355.054688 265.625 359.375 265.625 C 363.695312 265.625 367.1875 262.132812 367.1875 257.8125 L 367.1875 242.1875 C 367.1875 237.867188 363.695312 234.375 359.375 234.375 Z M 320.3125 234.375 C 315.992188 234.375 312.5 237.867188 312.5 242.1875 L 312.5 257.8125 C 312.5 262.132812 315.992188 265.625 320.3125 265.625 C 324.632812 265.625 328.125 262.132812 328.125 257.8125 L 328.125 242.1875 C 328.125 237.867188 324.632812 234.375 320.3125 234.375 Z M 179.6875 265.625 C 184.007812 265.625 187.5 262.132812 187.5 257.8125 L 187.5 242.1875 C 187.5 237.867188 184.007812 234.375 179.6875 234.375 C 175.367188 234.375 171.875 237.867188 171.875 242.1875 L 171.875 257.8125 C 171.875 262.132812 175.367188 265.625 179.6875 265.625 Z M 140.625 265.625 C 144.945312 265.625 148.4375 262.132812 148.4375 257.8125 L 148.4375 242.1875 C 148.4375 237.867188 144.945312 234.375 140.625 234.375 C 136.304688 234.375 132.8125 237.867188 132.8125 242.1875 L 132.8125 257.8125 C 132.8125 262.132812 136.304688 265.625 140.625 265.625 Z M 101.5625 265.625 C 105.882812 265.625 109.375 262.132812 109.375 257.8125 L 109.375 242.1875 C 109.375 237.867188 105.882812 234.375 101.5625 234.375 C 97.242188 234.375 93.75 237.867188 93.75 242.1875 L 93.75 257.8125 C 93.75 262.132812 97.242188 265.625 101.5625 265.625 Z M 101.5625 265.625 "/>
</g>
</svg>
