<svg xmlns="http://www.w3.org/2000/svg" width="64px" height="64px" viewBox="0 0 64 64"><path fill="#acb7d0" d="M51,55H33c-3.314,0-6-2.686-6-6V7c0-3.314,2.686-6,6-6h18c3.314,0,6,2.686,6,6v42 C57,52.314,54.314,55,51,55z"/><path fill="#c5e4fa" d="M27 9H57V45H27z"/><path fill="#e3f2ff" d="M57 24L57 39 50 46 35 46zM57 13L57 19.01 34 42 34 36zM56 10L34 32 34 27 51 10z"/><path fill="#acb7d0" d="M31,63H13c-3.314,0-6-2.686-6-6V15c0-3.314,2.686-6,6-6h18c3.314,0,6,2.686,6,6v42 C37,60.314,34.314,63,31,63z"/><path fill="#c5e4fa" d="M7 17H37V53H7z"/><path fill="#e3f2ff" d="M37 24L37 39 23 53 8 53zM37 17L37 19.01 7 49 7 43 33 17zM29 17L7 39 7 34 24 17z"/><path fill="#8d6c9f" d="M51,0H33c-3.86,0-7,3.14-7,7v1H13c-3.86,0-7,3.14-7,7v42c0,3.86,3.14,7,7,7h18c3.86,0,7-3.14,7-7v-1 h13c3.86,0,7-3.14,7-7V7C58,3.14,54.86,0,51,0z M28,7c0-2.76,2.24-5,5-5h18c2.76,0,5,2.24,5,5v1H37c-0.553,0-1,0.448-1,1 s0.447,1,1,1h19v34H38V15c0-3.86-3.14-7-7-7h-3V7z M8,18h28v34H8V18z M13,10h18c2.76,0,5,2.24,5,5v1H8v-1C8,12.24,10.24,10,13,10z M36,57c0,2.76-2.24,5-5,5H13c-2.76,0-5-2.24-5-5v-3h28v2V57z M51,54H38v-8h18v3C56,51.76,53.76,54,51,54z"/><path fill="#8d6c9f" d="M42 48A2 2 0 1 0 42 52 2 2 0 1 0 42 48zM43 6h4c.553 0 1-.448 1-1s-.447-1-1-1h-4c-.553 0-1 .448-1 1S42.447 6 43 6zM37 6h2c.553 0 1-.448 1-1s-.447-1-1-1h-2c-.553 0-1 .448-1 1S36.447 6 37 6zM12 46c-.553 0-1 .448-1 1v2c0 .552.447 1 1 1s1-.448 1-1v-2C13 46.448 12.553 46 12 46zM17 46c-.553 0-1 .448-1 1v2c0 .552.447 1 1 1s1-.448 1-1v-2C18 46.448 17.553 46 17 46zM22 46c-.553 0-1 .448-1 1v2c0 .552.447 1 1 1s1-.448 1-1v-2C23 46.448 22.553 46 22 46zM27 46c-.553 0-1 .448-1 1v2c0 .552.447 1 1 1s1-.448 1-1v-2C28 46.448 27.553 46 27 46zM32 46c-.553 0-1 .448-1 1v2c0 .552.447 1 1 1s1-.448 1-1v-2C33 46.448 32.553 46 32 46zM22 56A2 2 0 1 0 22 60 2 2 0 1 0 22 56zM23 14h4c.553 0 1-.448 1-1s-.447-1-1-1h-4c-.553 0-1 .448-1 1S22.447 14 23 14zM17 14h2c.553 0 1-.448 1-1s-.447-1-1-1h-2c-.553 0-1 .448-1 1S16.447 14 17 14z"/><path fill="#fff8f8" d="M15.502 21.996L16.74 24.26 19.004 25.498 16.74 26.736 15.502 29 14.264 26.736 12 25.498 14.264 24.26zM21.419 37.162L22.274 38.726 23.838 39.581 22.274 40.436 21.419 42 20.564 40.436 19 39.581 20.564 38.726zM29.648 27.704L30.231 28.769 31.296 29.352 30.231 29.935 29.648 31 29.065 29.935 28 29.352 29.065 28.769zM44.419 30.162L45.274 31.726 46.838 32.581 45.274 33.436 44.419 35 43.564 33.436 42 32.581 43.564 31.726zM51.648 16.704L52.231 17.769 53.296 18.352 52.231 18.935 51.648 20 51.065 18.935 50 18.352 51.065 17.769z"/></svg>